<svg xmlns="http://www.w3.org/2000/svg" viewBox="0 0 600 400" width="600" height="400">
  <defs>
    <!-- Background gradient: deep indigo to black -->
    <linearGradient id="bg" x1="0%" y1="0%" x2="100%" y2="100%">
      <stop offset="0%"   stop-color="#0e0b1f"/>
      <stop offset="50%"  stop-color="#140a28"/>
      <stop offset="100%" stop-color="#050308"/>
    </linearGradient>

    <!-- Gold shimmer on text -->
    <linearGradient id="goldText" x1="0%" y1="0%" x2="0%" y2="100%">
      <stop offset="0%"   stop-color="#f5d47a"/>
      <stop offset="40%"  stop-color="#e2a83a"/>
      <stop offset="100%" stop-color="#9a6b10"/>
    </linearGradient>

    <!-- Subtle amber glow -->
    <radialGradient id="glow" cx="50%" cy="50%" r="45%">
      <stop offset="0%"  stop-color="#c8830a" stop-opacity="0.18"/>
      <stop offset="100%" stop-color="#0e0b1f" stop-opacity="0"/>
    </radialGradient>

    <!-- Diamond pattern tile -->
    <pattern id="diamonds" x="0" y="0" width="40" height="40" patternUnits="userSpaceOnUse">
      <polygon points="20,2 38,20 20,38 2,20" fill="none" stroke="#c8830a" stroke-width="0.6" opacity="0.18"/>
      <circle cx="20" cy="20" r="2" fill="#c8830a" opacity="0.12"/>
    </pattern>

    <!-- Kente-inspired corner accent pattern -->
    <pattern id="kente" x="0" y="0" width="12" height="12" patternUnits="userSpaceOnUse">
      <rect width="12" height="12" fill="none"/>
      <rect x="0" y="0" width="6" height="6" fill="#c8830a" opacity="0.15"/>
      <rect x="6" y="6" width="6" height="6" fill="#9b59b6" opacity="0.12"/>
    </pattern>

    <filter id="textGlow">
      <feGaussianBlur in="SourceGraphic" stdDeviation="4" result="blur"/>
      <feColorMatrix in="blur" type="matrix"
        values="1 0.5 0 0 0.7  0.3 0.2 0 0 0.1  0 0 0 0 0  0 0 0 0.9 0" result="glow"/>
      <feMerge>
        <feMergeNode in="glow"/>
        <feMergeNode in="SourceGraphic"/>
      </feMerge>
    </filter>
  </defs>

  <!-- Base background -->
  <rect width="600" height="400" fill="url(#bg)"/>

  <!-- Diamond texture overlay -->
  <rect width="600" height="400" fill="url(#diamonds)"/>

  <!-- Center radial glow -->
  <rect width="600" height="400" fill="url(#glow)"/>

  <!-- Top kente border strip -->
  <rect x="0" y="0" width="600" height="8" fill="url(#kente)"/>
  <!-- Bottom kente border strip -->
  <rect x="0" y="392" width="600" height="8" fill="url(#kente)"/>
  <!-- Left kente strip -->
  <rect x="0" y="0" width="8" height="400" fill="url(#kente)"/>
  <!-- Right kente strip -->
  <rect x="592" y="0" width="8" height="400" fill="url(#kente)"/>

  <!-- Corner diamond ornaments -->
  <polygon points="28,28 42,14 56,28 42,42" fill="none" stroke="#e2a83a" stroke-width="1.2" opacity="0.5"/>
  <polygon points="572,28 558,14 544,28 558,42" fill="none" stroke="#e2a83a" stroke-width="1.2" opacity="0.5"/>
  <polygon points="28,372 42,386 56,372 42,358" fill="none" stroke="#e2a83a" stroke-width="1.2" opacity="0.5"/>
  <polygon points="572,372 558,386 544,372 558,358" fill="none" stroke="#e2a83a" stroke-width="1.2" opacity="0.5"/>

  <!-- Decorative concentric arcs behind text -->
  <circle cx="300" cy="200" r="140" fill="none" stroke="#e2a83a" stroke-width="0.5" opacity="0.12"/>
  <circle cx="300" cy="200" r="155" fill="none" stroke="#e2a83a" stroke-width="0.5" opacity="0.08"/>
  <circle cx="300" cy="200" r="170" fill="none" stroke="#9b59b6" stroke-width="0.5" opacity="0.08"/>

  <!-- Horizontal rule lines -->
  <line x1="40" y1="148" x2="210" y2="148" stroke="#e2a83a" stroke-width="0.8" opacity="0.4"/>
  <line x1="390" y1="148" x2="560" y2="148" stroke="#e2a83a" stroke-width="0.8" opacity="0.4"/>
  <line x1="40" y1="258" x2="210" y2="258" stroke="#e2a83a" stroke-width="0.8" opacity="0.4"/>
  <line x1="390" y1="258" x2="560" y2="258" stroke="#e2a83a" stroke-width="0.8" opacity="0.4"/>

  <!-- Small diamond accent mid-line -->
  <polygon points="300,140 308,148 300,156 292,148" fill="#e2a83a" opacity="0.55"/>
  <polygon points="300,244 308,252 300,260 292,252" fill="#e2a83a" opacity="0.55"/>

  <!-- Tagline above -->
  <text x="300" y="172"
    font-family="Georgia, 'Times New Roman', serif"
    font-size="11"
    fill="#e2a83a"
    text-anchor="middle"
    letter-spacing="6"
    opacity="0.75">
    ◆ THE MOVEMENT ◆
  </text>

  <!-- Main title: AFRO -->
  <text x="300" y="218"
    font-family="Georgia, 'Times New Roman', serif"
    font-size="72"
    font-weight="700"
    fill="url(#goldText)"
    text-anchor="middle"
    letter-spacing="10"
    filter="url(#textGlow)">
    AFRO
  </text>

  <!-- Main title: BEATS — offset slightly for rhythm -->
  <text x="300" y="250"
    font-family="'Arial Narrow', Arial, sans-serif"
    font-size="38"
    font-weight="300"
    fill="#ffffff"
    text-anchor="middle"
    letter-spacing="22"
    opacity="0.88">
    BEATS
  </text>

  <!-- Tagline below -->
  <text x="300" y="296"
    font-family="Georgia, 'Times New Roman', serif"
    font-size="10.5"
    fill="#e2a83a"
    text-anchor="middle"
    letter-spacing="4"
    opacity="0.65">
    WASHINGTON D.C.  ·  BALTIMORE
  </text>

  <!-- Small dot accents flanking tagline -->
  <circle cx="100" cy="200" r="2.5" fill="#e2a83a" opacity="0.25"/>
  <circle cx="500" cy="200" r="2.5" fill="#e2a83a" opacity="0.25"/>
  <circle cx="88"  cy="200" r="1.5" fill="#e2a83a" opacity="0.15"/>
  <circle cx="512" cy="200" r="1.5" fill="#e2a83a" opacity="0.15"/>
</svg>
