<svg xmlns="http://www.w3.org/2000/svg" viewBox="0 0 600 400" width="600" height="400">
  <defs>
    <linearGradient id="bg" x1="0%" y1="0%" x2="100%" y2="100%">
      <stop offset="0%"   stop-color="#160900"/>
      <stop offset="50%"  stop-color="#1a0e02"/>
      <stop offset="100%" stop-color="#070400"/>
    </linearGradient>
    <linearGradient id="goldText" x1="0%" y1="0%" x2="0%" y2="100%">
      <stop offset="0%"   stop-color="#fde989"/>
      <stop offset="40%"  stop-color="#f0a722"/>
      <stop offset="100%" stop-color="#b87412"/>
    </linearGradient>
    <linearGradient id="sunRay" x1="50%" y1="0%" x2="50%" y2="100%">
      <stop offset="0%"  stop-color="#f0a722" stop-opacity="0.22"/>
      <stop offset="100%" stop-color="#160900" stop-opacity="0"/>
    </linearGradient>
    <radialGradient id="glow" cx="50%" cy="42%" r="40%">
      <stop offset="0%"  stop-color="#d4750a" stop-opacity="0.2"/>
      <stop offset="100%" stop-color="#160900" stop-opacity="0"/>
    </radialGradient>
    <radialGradient id="sunGlow" cx="50%" cy="42%" r="25%">
      <stop offset="0%"  stop-color="#fde989" stop-opacity="0.12"/>
      <stop offset="100%" stop-color="#160900" stop-opacity="0"/>
    </radialGradient>
    <pattern id="diamonds" x="0" y="0" width="40" height="40" patternUnits="userSpaceOnUse">
      <polygon points="20,2 38,20 20,38 2,20" fill="none" stroke="#d4750a" stroke-width="0.6" opacity="0.18"/>
      <circle cx="20" cy="20" r="2" fill="#d4750a" opacity="0.1"/>
    </pattern>
    <pattern id="kente" x="0" y="0" width="12" height="12" patternUnits="userSpaceOnUse">
      <rect width="12" height="12" fill="none"/>
      <rect x="0" y="0" width="6" height="6" fill="#f0a722" opacity="0.18"/>
      <rect x="6" y="6" width="6" height="6" fill="#8b3a00" opacity="0.14"/>
    </pattern>
    <filter id="textGlow">
      <feGaussianBlur in="SourceGraphic" stdDeviation="5" result="blur"/>
      <feColorMatrix in="blur" type="matrix"
        values="1 0.6 0 0 0.6  0.4 0.2 0 0 0.1  0 0 0 0 0  0 0 0 0.85 0" result="glow"/>
      <feMerge><feMergeNode in="glow"/><feMergeNode in="SourceGraphic"/></feMerge>
    </filter>
  </defs>

  <rect width="600" height="400" fill="url(#bg)"/>
  <rect width="600" height="400" fill="url(#diamonds)"/>
  <rect width="600" height="400" fill="url(#glow)"/>
  <rect width="600" height="400" fill="url(#sunGlow)"/>

  <!-- Sunburst rays emanating from top-center (rooftop sun feel) -->
  <line x1="300" y1="50" x2="80"  y2="350" stroke="#f0a722" stroke-width="0.5" opacity="0.06"/>
  <line x1="300" y1="50" x2="140" y2="380" stroke="#f0a722" stroke-width="0.5" opacity="0.07"/>
  <line x1="300" y1="50" x2="220" y2="400" stroke="#f0a722" stroke-width="0.5" opacity="0.06"/>
  <line x1="300" y1="50" x2="300" y2="400" stroke="#f0a722" stroke-width="0.5" opacity="0.08"/>
  <line x1="300" y1="50" x2="380" y2="400" stroke="#f0a722" stroke-width="0.5" opacity="0.06"/>
  <line x1="300" y1="50" x2="460" y2="380" stroke="#f0a722" stroke-width="0.5" opacity="0.07"/>
  <line x1="300" y1="50" x2="520" y2="350" stroke="#f0a722" stroke-width="0.5" opacity="0.06"/>
  <line x1="300" y1="50" x2="40"  y2="280" stroke="#f0a722" stroke-width="0.5" opacity="0.05"/>
  <line x1="300" y1="50" x2="560" y2="280" stroke="#f0a722" stroke-width="0.5" opacity="0.05"/>

  <!-- Sun arc at top center -->
  <path d="M 230 78 A 70 70 0 0 1 370 78" fill="none" stroke="#f0a722" stroke-width="1" opacity="0.25"/>
  <path d="M 248 60 A 55 55 0 0 1 352 60" fill="none" stroke="#fde989" stroke-width="0.6" opacity="0.2"/>

  <!-- Kente borders -->
  <rect x="0" y="0" width="600" height="8" fill="url(#kente)"/>
  <rect x="0" y="392" width="600" height="8" fill="url(#kente)"/>
  <rect x="0" y="0" width="8" height="400" fill="url(#kente)"/>
  <rect x="592" y="0" width="8" height="400" fill="url(#kente)"/>

  <!-- Corner diamonds -->
  <polygon points="28,28 42,14 56,28 42,42" fill="none" stroke="#f0a722" stroke-width="1.2" opacity="0.5"/>
  <polygon points="572,28 558,14 544,28 558,42" fill="none" stroke="#f0a722" stroke-width="1.2" opacity="0.5"/>
  <polygon points="28,372 42,386 56,372 42,358" fill="none" stroke="#f0a722" stroke-width="1.2" opacity="0.5"/>
  <polygon points="572,372 558,386 544,372 558,358" fill="none" stroke="#f0a722" stroke-width="1.2" opacity="0.5"/>

  <!-- Concentric arcs -->
  <circle cx="300" cy="200" r="140" fill="none" stroke="#d4750a" stroke-width="0.5" opacity="0.12"/>
  <circle cx="300" cy="200" r="155" fill="none" stroke="#f0a722" stroke-width="0.5" opacity="0.07"/>

  <!-- Horizontal rules -->
  <line x1="40" y1="148" x2="210" y2="148" stroke="#f0a722" stroke-width="0.8" opacity="0.4"/>
  <line x1="390" y1="148" x2="560" y2="148" stroke="#f0a722" stroke-width="0.8" opacity="0.4"/>
  <line x1="40" y1="265" x2="210" y2="265" stroke="#f0a722" stroke-width="0.8" opacity="0.4"/>
  <line x1="390" y1="265" x2="560" y2="265" stroke="#f0a722" stroke-width="0.8" opacity="0.4"/>

  <!-- Diamond accents -->
  <polygon points="300,140 308,148 300,156 292,148" fill="#f0a722" opacity="0.55"/>
  <polygon points="300,257 308,265 300,273 292,265" fill="#f0a722" opacity="0.55"/>

  <!-- Tagline above -->
  <text x="300" y="172" font-family="Georgia,'Times New Roman',serif" font-size="11"
    fill="#f0a722" text-anchor="middle" letter-spacing="6" opacity="0.75">◆ GOLDEN HOUR SESSION ◆</text>

  <!-- Main title: ROOFTOP -->
  <text x="300" y="222" font-family="Georgia,'Times New Roman',serif" font-size="68"
    font-weight="700" fill="url(#goldText)" text-anchor="middle" letter-spacing="6"
    filter="url(#textGlow)">ROOFTOP</text>

  <!-- Sub title: DAY PARTY -->
  <text x="300" y="253" font-family="'Arial Narrow',Arial,sans-serif" font-size="26"
    font-weight="300" fill="#ffffff" text-anchor="middle" letter-spacing="20" opacity="0.85">
    DAY PARTY
  </text>

  <!-- Tagline below -->
  <text x="300" y="295" font-family="Georgia,'Times New Roman',serif" font-size="10.5"
    fill="#f0a722" text-anchor="middle" letter-spacing="4" opacity="0.65">
    14TH &amp; U STREET NW  ·  WASHINGTON D.C.
  </text>

  <!-- Dot accents -->
  <circle cx="100" cy="200" r="2.5" fill="#f0a722" opacity="0.25"/>
  <circle cx="500" cy="200" r="2.5" fill="#f0a722" opacity="0.25"/>
  <circle cx="88"  cy="200" r="1.5" fill="#f0a722" opacity="0.15"/>
  <circle cx="512" cy="200" r="1.5" fill="#f0a722" opacity="0.15"/>
</svg>
